<svg width="26" height="6" viewBox="0 0 26 6" fill="none" xmlns="http://www.w3.org/2000/svg">
<path d="M2.85156 0.5C3.64844 0.5 4.26367 0.728516 4.69727 1.18555C5.13086 1.63086 5.34766 2.19336 5.34766 2.87305C5.34766 3.54102 5.13086 4.09766 4.69727 4.54297C4.26367 4.97656 3.64844 5.19336 2.85156 5.19336C2.08984 5.19336 1.48633 4.97656 1.04102 4.54297C0.595703 4.10938 0.373047 3.55273 0.373047 2.87305C0.373047 2.19336 0.589844 1.63086 1.02344 1.18555C1.45703 0.728516 2.06641 0.5 2.85156 0.5ZM12.9062 0.5C13.7031 0.5 14.3184 0.728516 14.752 1.18555C15.1855 1.63086 15.4023 2.19336 15.4023 2.87305C15.4023 3.54102 15.1855 4.09766 14.752 4.54297C14.3184 4.97656 13.7031 5.19336 12.9062 5.19336C12.1445 5.19336 11.541 4.97656 11.0957 4.54297C10.6504 4.10938 10.4277 3.55273 10.4277 2.87305C10.4277 2.19336 10.6445 1.63086 11.0781 1.18555C11.5117 0.728516 12.1211 0.5 12.9062 0.5ZM22.9609 0.5C23.7578 0.5 24.373 0.728516 24.8066 1.18555C25.2402 1.63086 25.457 2.19336 25.457 2.87305C25.457 3.54102 25.2402 4.09766 24.8066 4.54297C24.373 4.97656 23.7578 5.19336 22.9609 5.19336C22.1992 5.19336 21.5957 4.97656 21.1504 4.54297C20.7051 4.10938 20.4824 3.55273 20.4824 2.87305C20.4824 2.19336 20.6992 1.63086 21.1328 1.18555C21.5664 0.728516 22.1758 0.5 22.9609 0.5Z" fill="#84878A"/>
</svg>
